<?xml version="1.0"?>
<svg xmlns="http://www.w3.org/2000/svg" viewBox="0 0 700 130">
  <g id="Layer_3">
    <g>
      <g>
        <g>
          <path d="M330.0151,6.4686q13.8589,0,19.8,8.46t5.94,22.2305a49.3455,49.3455,0,0,1-2.61,16.6045,24.4685,24.4685,0,0,1-8.2344,11.61q-5.6264,4.273-14.8955,4.2754-13.5908,0-19.665-8.8652T304.2749,38.329a48.1337,48.1337,0,0,1,2.61-16.47,23.3156,23.3156,0,0,1,8.28-11.2959Q320.8344,6.4692,330.0151,6.4686Zm0,56.7a6.8846,6.8846,0,0,0,6.57-4.14,27.6082,27.6082,0,0,0,2.5645-10.08q.4937-5.94.4951-11.25,0-5.13-.54-10.8906a27.0138,27.0138,0,0,0-2.6094-9.81,6.8311,6.8311,0,0,0-6.4805-4.05,6.9194,6.9194,0,0,0-6.5254,4.05,26.3958,26.3958,0,0,0-2.6543,9.81q-.54,5.7612-.54,10.8906,0,5.3115.54,11.25a28.1484,28.1484,0,0,0,2.6094,10.08A6.8829,6.8829,0,0,0,330.0151,63.1688Z" style="fill: #f2f4f5"/>
          <path d="M390.5845,19.9686q6.2988,0,9.9,3.375a18.1588,18.1588,0,0,1,5.04,8.91,46.9142,46.9142,0,0,1,1.44,11.835q0,11.5209-5.58,18.54t-17.1,7.02a25.3611,25.3611,0,0,1-2.97-.1807,20.6785,20.6785,0,0,1-2.8808-.54v14.94l-13.7695,1.17V21.7684l11.25-1.08.54,8.1006a12.9963,12.9963,0,0,1,5.5351-6.75A17.1142,17.1142,0,0,1,390.5845,19.9686Zm-5.13,6.84q-4.5015,0-5.76,4.0957a29.0365,29.0365,0,0,0-1.2607,8.5947v22.59a10.6536,10.6536,0,0,0,6.3906,2.16,5.53,5.53,0,0,0,5.31-3.15,20.8853,20.8853,0,0,0,2.0254-7.7392q.4042-4.5909.4052-8.82,0-4.05-.36-8.1456a17.0515,17.0515,0,0,0-1.89-6.84A5.1686,5.1686,0,0,0,385.4546,26.8085Z" style="fill: #f2f4f5"/>
          <path d="M417.0444,25.8192h-6.03v-2.79a44.119,44.119,0,0,0,8.5947-4.41,36.1557,36.1557,0,0,0,7.4248-6.21h3.87v9.3593h8.28v4.0508h-8.37v32.04a7.4961,7.4961,0,0,0,.99,4.1845,5.2545,5.2545,0,0,0,3.42,2.0254,6.4185,6.4185,0,0,1-3.4648,3.7344,12.1637,12.1637,0,0,1-5.2656,1.2148q-4.7711,0-7.1094-2.5195-2.3423-2.5181-2.34-7.29Z" style="fill: #f2f4f5"/>
          <path d="M451.6938,1.4286a9.5954,9.5954,0,0,1,5.85,1.665,5.6281,5.6281,0,0,1,2.25,4.8155,5.45,5.45,0,0,1-2.43,4.8593,10.6377,10.6377,0,0,1-6.03,1.62,9.8258,9.8258,0,0,1-5.8047-1.62,5.3724,5.3724,0,0,1-2.2949-4.68,5.678,5.678,0,0,1,2.43-4.95A10.2283,10.2283,0,0,1,451.6938,1.4286Zm6.4795,20.34v36.9a14.71,14.71,0,0,0,.585,4.2754,7.8523,7.8523,0,0,0,2.2051,3.4649,6.2157,6.2157,0,0,1-3.1494,1.98,13.379,13.379,0,0,1-3.87.63q-4.6815,0-7.11-2.3847t-2.43-7.0645V21.7684Z" style="fill: #f2f4f5"/>
          <path d="M469.6919,67.6688v-45.9l11.25-1.08.63,8.1006a12.52,12.52,0,0,1,5.49-6.75,17.3679,17.3679,0,0,1,8.64-2.07q5.4008,0,8.46,2.0254a12.2966,12.2966,0,0,1,4.59,5.7149,12.4329,12.4329,0,0,1,5.2656-5.8955,16.1765,16.1765,0,0,1,7.875-1.8448q8.0083,0,11.1152,4.4551,3.1041,4.4546,3.1045,12.4649v21.78a14.71,14.71,0,0,0,.585,4.2754,7.8523,7.8523,0,0,0,2.2051,3.4649,6.2154,6.2154,0,0,1-3.15,1.98,13.3731,13.3731,0,0,1-3.8692.63q-4.6816,0-7.11-2.3847-2.43-2.3834-2.43-7.0645v-21.96a33.6918,33.6918,0,0,0-.7656-7.4258q-.7662-3.375-4.7246-3.375a4.8575,4.8575,0,0,0-4.545,2.3857,14.8281,14.8281,0,0,0-1.8,5.8047,55.8324,55.8324,0,0,0-.4052,6.57v26.1H496.3315v-30.06a31.8223,31.8223,0,0,0-.81-7.4258q-.81-3.375-4.86-3.375-4.95,0-6.0752,4.86a43.7021,43.7021,0,0,0-1.125,9.9v26.1Z" style="fill: #f2f4f5"/>
          <path d="M587.5923,21.7684v36.9a14.71,14.71,0,0,0,.5849,4.2754,7.8532,7.8532,0,0,0,2.2051,3.4649,6.7859,6.7859,0,0,1-3.1045,1.98,12.3425,12.3425,0,0,1-3.8252.63q-6.9316,0-8.55-5.3994a11.1244,11.1244,0,0,1-5.1757,4.59,17.2,17.2,0,0,1-6.9747,1.44q-10.26,0-13.05-6.4355-2.79-6.4336-2.79-16.7852v-24.66h13.95v24.21q0,4.4106.2695,8.3252a16.0921,16.0921,0,0,0,1.5752,6.3906,4.6976,4.6976,0,0,0,4.5449,2.4746,5.1709,5.1709,0,0,0,5.13-3.15,16.4811,16.4811,0,0,0,1.4405-6.93v-31.32Z" style="fill: #f2f4f5"/>
          <path d="M599.022,67.6688v-45.9l11.25-1.08.63,8.1006a12.52,12.52,0,0,1,5.49-6.75,17.3675,17.3675,0,0,1,8.64-2.07q5.4009,0,8.46,2.0254a12.2965,12.2965,0,0,1,4.59,5.7149,12.4336,12.4336,0,0,1,5.2657-5.8955,16.1765,16.1765,0,0,1,7.875-1.8448q8.0082,0,11.1152,4.4551,3.104,4.4546,3.1045,12.4649v21.78a14.7063,14.7063,0,0,0,.585,4.2754,7.853,7.853,0,0,0,2.205,3.4649,6.2146,6.2146,0,0,1-3.15,1.98,13.372,13.372,0,0,1-3.8691.63q-4.6816,0-7.11-2.3847-2.43-2.3834-2.43-7.0645v-21.96a33.6855,33.6855,0,0,0-.7657-7.4258q-.7661-3.375-4.7246-3.375a4.8574,4.8574,0,0,0-4.5449,2.3857,14.8264,14.8264,0,0,0-1.8,5.8047,55.8331,55.8331,0,0,0-.4053,6.57v26.1h-13.77v-30.06a31.8223,31.8223,0,0,0-.81-7.4258q-.81-3.375-4.86-3.375-4.95,0-6.0752,4.86a43.7021,43.7021,0,0,0-1.125,9.9v26.1Z" style="fill: #f2f4f5"/>
        </g>
        <g style="opacity: 0.7000000000000001">
          <g>
            <path d="M334.8423,122.0946h-5.17V107.8993H315.1538v14.1953h-5.1484V90.6015h5.1484v12.8818h14.5186V90.6015h5.17Z" style="fill: #f2f4f5"/>
            <path d="M364.2583,122.0946H346.4438V90.6015h17.8145V94.953h-12.666v8.5733h11.8691v4.3086H351.5923v9.8867h12.666Z" style="fill: #f2f4f5"/>
            <path d="M393.9116,122.0946l-3.1455-8.7451h-12.041l-3.08,8.7451h-5.4287L382,90.4726H387.6l11.7822,31.622ZM389.41,108.912l-2.9512-8.5732q-.3237-.8615-.8945-2.7149-.5713-1.8516-.7862-2.7138a48.3731,48.3731,0,0,1-1.7011,5.7949l-2.8438,8.207Z" style="fill: #f2f4f5"/>
            <path d="M406.8491,122.0946V90.6015h5.1485v27.0771h13.3339v4.416Z" style="fill: #f2f4f5"/>
            <path d="M444.9458,122.0946h-5.1475V95.0175h-9.2627v-4.416h23.6729v4.416h-9.2627Z" style="fill: #f2f4f5"/>
            <path d="M487.1792,122.0946h-5.17V107.8993H467.4907v14.1953h-5.1484V90.6015h5.1484v12.8818h14.5186V90.6015h5.17Z" style="fill: #f2f4f5"/>
            <path d="M512.1792,94.5653a8.4871,8.4871,0,0,0-6.98,3.1455q-2.5414,3.145-2.541,8.6807,0,5.795,2.4443,8.7666a8.6332,8.6332,0,0,0,7.0762,2.9727,18.5378,18.5378,0,0,0,3.8779-.3985q1.8736-.3984,3.8985-1.0224v4.415a23.6351,23.6351,0,0,1-8.4014,1.4q-6.9141,0-10.6191-4.1895T497.23,106.3485a19.3667,19.3667,0,0,1,1.7988-8.5947A12.8264,12.8264,0,0,1,504.231,92.11a15.7343,15.7343,0,0,1,7.9912-1.9609,19.8364,19.8364,0,0,1,8.9179,2.0254l-1.8525,4.2861a27.6646,27.6646,0,0,0-3.3711-1.3242A12.1386,12.1386,0,0,0,512.1792,94.5653Z" style="fill: #f2f4f5"/>
            <path d="M549.5874,122.0946l-3.1455-8.7451h-12.041l-3.08,8.7451h-5.4287l11.7832-31.622h5.6006l11.7822,31.622Zm-4.502-13.1826-2.9511-8.5732q-.3237-.8615-.8946-2.7149-.5712-1.8516-.7861-2.7138a48.3748,48.3748,0,0,1-1.7012,5.7949l-2.8437,8.207Z" style="fill: #f2f4f5"/>
            <path d="M567.6724,109.5145v12.58h-5.1485V90.6015H571.42q6.0952,0,9.0254,2.2841,2.93,2.2823,2.93,6.8926,0,5.8813-6.1172,8.38l8.8965,13.9365h-5.8594l-7.5391-12.58Zm0-4.2646h3.5761q3.5962,0,5.2129-1.3359a4.8459,4.8459,0,0,0,1.6153-3.9629,4.267,4.267,0,0,0-1.7452-3.835,9.5661,9.5661,0,0,0-5.2558-1.1631h-3.4033Z" style="fill: #f2f4f5"/>
            <path d="M611.8442,122.0946H594.03V90.6015h17.8144V94.953h-12.666v8.5733h11.8692v4.3086H599.1782v9.8867h12.666Z" style="fill: #f2f4f5"/>
            <path d="M636.728,122.0946V90.6015h5.1485v31.4931Z" style="fill: #f2f4f5"/>
            <path d="M664.3774,122.0946H659.23V95.0175h-9.2627v-4.416H673.64v4.416h-9.2627Z" style="fill: #f2f4f5"/>
          </g>
          <path d="M687.4866,94.4014h-.9893v2.6814H684.67V89.5016h2.9836a3.3334,3.3334,0,0,1,2.1088.5978,2.0282,2.0282,0,0,1,.76,1.6906,2.4613,2.4613,0,0,1-.32,1.3108,2.2726,2.2726,0,0,1-1.0025.8426l1.5829,3.061v.0784h-1.9578Zm-.9893-1.4061h1.156a1.036,1.036,0,0,0,.7835-.2742,1.0588,1.0588,0,0,0,.2631-.7648,1.0713,1.0713,0,0,0-.2658-.77,1.0272,1.0272,0,0,0-.7808-.2791h-1.156Zm1.0761,8.7956a7.8313,7.8313,0,1,1,7.8313-7.8313A7.84,7.84,0,0,1,687.5734,101.7909Zm0-14.0413a6.21,6.21,0,1,0,6.21,6.21A6.217,6.217,0,0,0,687.5734,87.75Z" style="fill: #f2f4f5"/>
        </g>
      </g>
      <g>
        <path d="M137.3671,48.64l-.1855.185c-.02.02-.04.04-.06.0613L121.1474,65.6615c-7.8311-7.7268-21.5234-20.0042-21.5225-20.0027-41.9922-40.1118-78.9375-25.16-90.7822.4634A60.265,60.265,0,0,0,5.6855,56.55c-.1143-.0332-.2334-.0476-.3506-.0706C9.9736,27.5458,32.52,7.7311,63.206,7.7311,95.6845,7.7311,117.0947,28.7213,137.3671,48.64ZM270.95,89.359c-.0234-.011-.04-.0286-.0634-.04-.1387.3662-.2667.7375-.4141,1.1008-11.8438,25.6236-48.4424,40.1223-90.4346.01l.0342.0227c-7.6465-5.99-14.6631-13.136-21.1318-19.7915l-.336.3452L142.3349,87.6817c20.1582,20.1644,41.5,40.89,73.7734,40.89,26.62,0,47.1035-15.5884,55.0928-39.105C271.1181,89.43,271.0322,89.3971,270.95,89.359Z" style="fill: #f2f4f5;opacity: 0.7000000000000001"/>
        <path d="M274.608,63.41c-2.667-32.4743-26.0288-55.6789-58.5-55.6789-33.7051,0-55.4883,22.6055-76.4512,43.5686l-.0005.0005L123.2134,68.5669c-15.4038,15.8072-34.0088,35.1983-56.5986,35.729l.0571.001.0269.001c.1323.0044.2026.0049.2192.0049h.0054c-.0264,0-.3936.0092-1.0356.0119-.0723.0005-.1436.0059-.2164.0059-.0776,0-.1543-.0044-.2319-.0049-8.9946-.01-56.1387-2.2073-60.6465-31.802-.0669.0054-.1294.0168-.1977.0195a7.76,7.76,0,0,1,.0127.9173c2.1577,32.36,25.706,55.1208,58.5981,55.1208,33.7026,0,55.4868-22.6025,76.4487-43.155l16.4444-16.8538c15.6079-16.0188,36.1615-36.8531,59.5668-36.8819-.0166,0,4.2449-.0093,4.2508-.0088,5.6972,0,49.2078,3.0668,54.4666,31.76C274.459,63.4258,274.53,63.4126,274.608,63.41Z" style="fill: #f2f4f5"/>
        <path d="M231.3568,110.87c-8.8125,0-17.9893-2.665-27.375-7.9375a31.5316,31.5316,0,0,0,8.6972,1.4658c21.002-.08,37.3906-16.0185,37.3145-36.2861l-.001-.1543c0-11.6269-4.5479-21.8262-12.625-28.6338a84.913,84.913,0,0,1,8.7383,2.5166c15.61,5.4629,23.7676,14.211,24.2451,26.001a70.2431,70.2431,0,0,1-.8115,9.61,55.7938,55.7938,0,0,1-3.2071,11.2021A38.1766,38.1766,0,0,1,231.3568,110.87ZM42.0316,97.1029C26.1722,93.5785,9.2279,85.7289,8.9456,68.2924l.0225-1.167.09-2.2363c.04-.5811.0928-1.1993.1543-1.8106l.0274-.2324c.0283-.2588.0634-.5068.1-.7549.0556-.39.1133-.7959.1533-1.2226a55.623,55.623,0,0,1,3.49-12.98A38.7115,38.7115,0,0,1,48.4788,25.41c8.0479,0,16.3975,2.2119,24.9219,6.5918a27.71,27.71,0,0,0-6.9053-1.02,37.3114,37.3114,0,0,0-37.1738,37.45l.001.1328C29.3226,80.1928,33.9,90.3539,42.0316,97.1029Z" style="fill: #f2f4f5;opacity: 0.4"/>
      </g>
    </g>
  </g>
</svg>
